# xmcd
# Copyright (C) 1995-1998 Ti Kan
#
# Track frame offsets:
#       150
#       16911
#       32328
#       49410
#       81735
#       93574
#       105564
#       126808
#       142044
#       167406
#       192088
#       205783
#       220166
#       235434
#       248115
#       260800
#       277173
#
# Disc length: 3993 seconds
#
# Revision: 0
# Processed by: cddbd v1.5.2PL0 Copyright (c) Steve Scherf et al.
# Submitted via: CD-Transfer v1.0
#
DISCID=fb0f9711
DTITLE=Various Albert - Albert
DYEAR=06
DGENRE=
TTITLE0=Mezmerized Faith Evans
TTITLE1=Taindet Love Pussycat Dolls
TTITLE2=Surrender Nicole Russo and The Brand New Heavies
TTITLE3=This Is What You Are Mario Biondi
TTITLE4=Bongo Rock Incredible Bongo Band
TTITLE5=Let There Be Drum Incredible Bongo Band
TTITLE6=My Lovin`en Vogue
TTITLE7=Ruby Kaiser Chiefs
TTITLE8=Upside Down Disco Deejays
TTITLE9=Thriller Rilod
TTITLE10=Wenn Nicht Jetzt Wann Dann Höhner
TTITLE11=
TTITLE12=Shakira Pure Intuition (Teccno)
TTITLE13=Come Back To Me Vanessa Hudgens
TTITLE14=Tell Me `bout It Joss Stone
TTITLE15=Pure Intuition Shakira
TTITLE16=Que Hiciste Jennifer Lopez
EXTD=
EXTT0=
EXTT1=
EXTT2=
EXTT3=
EXTT4=
EXTT5=
EXTT6=
EXTT7=
EXTT8=
EXTT9=
EXTT10=
EXTT11=
EXTT12=
EXTT13=
EXTT14=
EXTT15=
EXTT16=
PLAYORDER=
